<?xml version="1.0" encoding="us-ascii" standalone="no"?><svg xmlns="http://www.w3.org/2000/svg" xmlns:xlink="http://www.w3.org/1999/xlink" contentStyleType="text/css" height="682px" preserveAspectRatio="none" style="width:4417px;height:682px;background:#FFFFFF;" version="1.1" viewBox="0 0 4417 682" width="4417px" zoomAndPan="magnify"><defs/><g><!--class CanvasUser--><g id="elem_CanvasUser"><rect codeLine="1" fill="#F1F1F1" height="146.9297" id="CanvasUser" rx="2.5" ry="2.5" style="stroke:#181818;stroke-width:0.5;" width="583" x="7" y="420.86"/><ellipse cx="254.25" cy="436.86" fill="#ADD1B2" rx="11" ry="11" style="stroke:#181818;stroke-width:1.0;"/><path d="M256.7231,443.0031 Q256.1421,443.3019 255.5029,443.4513 Q254.8638,443.6007 254.1582,443.6007 Q251.6514,443.6007 250.3315,441.9489 Q249.0117,440.297 249.0117,437.1759 Q249.0117,434.0465 250.3315,432.3947 Q251.6514,430.7428 254.1582,430.7428 Q254.8638,430.7428 255.5112,430.8922 Q256.1587,431.0416 256.7231,431.3405 L256.7231,434.0631 Q256.0923,433.4821 255.4988,433.2123 Q254.9053,432.9425 254.2744,432.9425 Q252.9297,432.9425 252.2449,434.0092 Q251.5601,435.0758 251.5601,437.1759 Q251.5601,439.2677 252.2449,440.3344 Q252.9297,441.401 254.2744,441.401 Q254.9053,441.401 255.4988,441.1312 Q256.0923,440.8615 256.7231,440.2804 Z " fill="#000000"/><text fill="#000000" font-family="sans-serif" font-size="14" lengthAdjust="spacing" textLength="80" x="274.75" y="442.151">CanvasUser</text><line style="stroke:#181818;stroke-width:0.5;" x1="8" x2="589" y1="452.86" y2="452.86"/><ellipse cx="18" cy="466.6041" fill="none" rx="3" ry="3" style="stroke:#038048;stroke-width:1.0;"/><text fill="#000000" font-family="sans-serif" font-size="14" lengthAdjust="spacing" textLength="121" x="27" y="470.3952">&#171;readonly&#187; Id : int</text><ellipse cx="18" cy="483.0924" fill="none" rx="3" ry="3" style="stroke:#038048;stroke-width:1.0;"/><text fill="#000000" font-family="sans-serif" font-size="14" lengthAdjust="spacing" textLength="131" x="27" y="486.8834">Name : string &#171;get&#187;</text><ellipse cx="18" cy="499.5807" fill="none" rx="3" ry="3" style="stroke:#038048;stroke-width:1.0;"/><text fill="#000000" font-family="sans-serif" font-size="14" lengthAdjust="spacing" textLength="174" x="27" y="503.3717">Contact : string &#171;get&#187; = ""</text><ellipse cx="18" cy="516.069" fill="none" rx="3" ry="3" style="stroke:#038048;stroke-width:1.0;"/><text fill="#000000" font-family="sans-serif" font-size="14" lengthAdjust="spacing" textLength="190" x="27" y="519.86">Biography : string &#171;get&#187; = ""</text><line style="stroke:#181818;stroke-width:0.5;" x1="8" x2="589" y1="526.8131" y2="526.8131"/><ellipse cx="18" cy="540.5573" fill="#84BE84" rx="3" ry="3" style="stroke:#038048;stroke-width:1.0;"/><text fill="#000000" font-family="sans-serif" font-size="14" lengthAdjust="spacing" textLength="269" x="27" y="544.3483">EnrollIn(course:AcademicCourse) : void</text><ellipse cx="18" cy="557.0455" fill="#84BE84" rx="3" ry="3" style="stroke:#038048;stroke-width:1.0;"/><text fill="#000000" font-family="sans-serif" font-size="14" lengthAdjust="spacing" textLength="557" x="27" y="560.8366">OnCourseworkAssigned(course:AcademicCourse, coursework:Coursework) : void</text></g><!--class ReadOnlyCollection`1--><g id="elem_ReadOnlyCollection`1"><rect codeLine="9" fill="#F1F1F1" height="48" id="ReadOnlyCollection`1" rx="2.5" ry="2.5" style="stroke:#181818;stroke-width:0.5;" width="196" x="200.5" y="627.79"/><ellipse cx="215.5" cy="643.79" fill="#ADD1B2" rx="11" ry="11" style="stroke:#181818;stroke-width:1.0;"/><path d="M217.9731,649.9331 Q217.3921,650.2319 216.7529,650.3813 Q216.1138,650.5307 215.4082,650.5307 Q212.9014,650.5307 211.5815,648.8789 Q210.2617,647.227 210.2617,644.1059 Q210.2617,640.9765 211.5815,639.3247 Q212.9014,637.6728 215.4082,637.6728 Q216.1138,637.6728 216.7612,637.8222 Q217.4087,637.9716 217.9731,638.2705 L217.9731,640.9931 Q217.3423,640.4121 216.7488,640.1423 Q216.1553,639.8725 215.5244,639.8725 Q214.1797,639.8725 213.4949,640.9392 Q212.8101,642.0058 212.8101,644.1059 Q212.8101,646.1977 213.4949,647.2644 Q214.1797,648.331 215.5244,648.331 Q216.1553,648.331 216.7488,648.0612 Q217.3423,647.7915 217.9731,647.2104 Z " fill="#000000"/><text fill="#000000" font-family="sans-serif" font-size="14" lengthAdjust="spacing" textLength="152" x="229.5" y="649.081">ReadOnlyCollection`1</text><rect fill="#FFFFFF" height="16.1328" style="stroke:#181818;stroke-width:1.0;stroke-dasharray:2.0,2.0;" width="10" x="389.5" y="624.79"/><text fill="#000000" font-family="sans-serif" font-size="12" font-style="italic" lengthAdjust="spacing" textLength="8" x="390.5" y="637.3916">T</text><line style="stroke:#181818;stroke-width:0.5;" x1="201.5" x2="395.5" y1="659.79" y2="659.79"/><line style="stroke:#181818;stroke-width:0.5;" x1="201.5" x2="395.5" y1="667.79" y2="667.79"/></g><!--class ICourseListener--><g id="elem_ICourseListener"><rect codeLine="10" fill="#F1F1F1" height="48" id="ICourseListener" rx="2.5" ry="2.5" style="stroke:#181818;stroke-width:0.5;" width="139" x="220" y="255.15"/><ellipse cx="235" cy="271.15" fill="#B4A7E5" rx="11" ry="11" style="stroke:#181818;stroke-width:1.0;"/><path d="M231.4277,267.4151 L231.4277,265.2569 L238.8071,265.2569 L238.8071,267.4151 L236.3418,267.4151 L236.3418,275.4918 L238.8071,275.4918 L238.8071,277.65 L231.4277,277.65 L231.4277,275.4918 L233.8931,275.4918 L233.8931,267.4151 Z " fill="#000000"/><text fill="#000000" font-family="sans-serif" font-size="14" font-style="italic" lengthAdjust="spacing" textLength="107" x="249" y="276.441">ICourseListener</text><line style="stroke:#181818;stroke-width:0.5;" x1="221" x2="358" y1="287.15" y2="287.15"/><line style="stroke:#181818;stroke-width:0.5;" x1="221" x2="358" y1="295.15" y2="295.15"/></g><!--class AcademicCourse--><g id="elem_AcademicCourse"><rect codeLine="1" fill="#F1F1F1" height="163.418" id="AcademicCourse" rx="2.5" ry="2.5" style="stroke:#181818;stroke-width:0.5;" width="620" x="394.5" y="197.44"/><ellipse cx="642.75" cy="213.44" fill="#ADD1B2" rx="11" ry="11" style="stroke:#181818;stroke-width:1.0;"/><path d="M645.2231,219.5831 Q644.6421,219.8819 644.0029,220.0313 Q643.3638,220.1807 642.6582,220.1807 Q640.1514,220.1807 638.8315,218.5289 Q637.5117,216.877 637.5117,213.7559 Q637.5117,210.6265 638.8315,208.9747 Q640.1514,207.3228 642.6582,207.3228 Q643.3638,207.3228 644.0112,207.4722 Q644.6587,207.6216 645.2231,207.9205 L645.2231,210.6431 Q644.5923,210.0621 643.9988,209.7923 Q643.4053,209.5225 642.7744,209.5225 Q641.4297,209.5225 640.7449,210.5892 Q640.0601,211.6558 640.0601,213.7559 Q640.0601,215.8477 640.7449,216.9144 Q641.4297,217.981 642.7744,217.981 Q643.4053,217.981 643.9988,217.7112 Q644.5923,217.4415 645.2231,216.8604 Z " fill="#000000"/><text fill="#000000" font-family="sans-serif" font-size="14" lengthAdjust="spacing" textLength="115" x="663.25" y="218.731">AcademicCourse</text><line style="stroke:#181818;stroke-width:0.5;" x1="395.5" x2="1013.5" y1="229.44" y2="229.44"/><ellipse cx="405.5" cy="243.1841" fill="none" rx="3" ry="3" style="stroke:#038048;stroke-width:1.0;"/><text fill="#000000" font-family="sans-serif" font-size="14" lengthAdjust="spacing" textLength="131" x="414.5" y="246.9752">Name : string &#171;get&#187;</text><ellipse cx="405.5" cy="259.6724" fill="none" rx="3" ry="3" style="stroke:#038048;stroke-width:1.0;"/><text fill="#000000" font-family="sans-serif" font-size="14" lengthAdjust="spacing" textLength="155" x="414.5" y="263.4634">Semester : string &#171;get&#187;</text><line style="stroke:#181818;stroke-width:0.5;" x1="395.5" x2="1013.5" y1="270.4166" y2="270.4166"/><ellipse cx="405.5" cy="284.1607" fill="#84BE84" rx="3" ry="3" style="stroke:#038048;stroke-width:1.0;"/><text fill="#000000" font-family="sans-serif" font-size="14" lengthAdjust="spacing" textLength="314" x="414.5" y="287.9517">Enroll(user:CanvasUser, role:RoleTypes) : void</text><ellipse cx="405.5" cy="300.649" fill="#84BE84" rx="3" ry="3" style="stroke:#038048;stroke-width:1.0;"/><text fill="#000000" font-family="sans-serif" font-size="14" lengthAdjust="spacing" textLength="226" x="414.5" y="304.44">Disenroll(user:CanvasUser) : void</text><ellipse cx="405.5" cy="317.1373" fill="#84BE84" rx="3" ry="3" style="stroke:#038048;stroke-width:1.0;"/><text fill="#000000" font-family="sans-serif" font-size="14" lengthAdjust="spacing" textLength="347" x="414.5" y="320.9283">AssignCoursework(coursework:Coursework) : void</text><ellipse cx="405.5" cy="333.6255" fill="#84BE84" rx="3" ry="3" style="stroke:#038048;stroke-width:1.0;"/><text fill="#000000" font-family="sans-serif" font-size="14" lengthAdjust="spacing" textLength="594" x="414.5" y="337.4166">SubmitCoursework(user:CanvasUser, courseworkId:int, submission:List&lt;string&gt;) : void</text><ellipse cx="405.5" cy="350.1138" fill="#84BE84" rx="3" ry="3" style="stroke:#038048;stroke-width:1.0;"/><text fill="#000000" font-family="sans-serif" font-size="14" lengthAdjust="spacing" textLength="229" x="414.5" y="353.9048">GetGrade(user:CanvasUser) : void</text></g><!--class List`1--><g id="elem_List`1"><rect codeLine="5" fill="#F1F1F1" height="48" id="List`1" rx="2.5" ry="2.5" style="stroke:#181818;stroke-width:0.5;" width="85" x="3121" y="255.15"/><ellipse cx="3136" cy="271.15" fill="#ADD1B2" rx="11" ry="11" style="stroke:#181818;stroke-width:1.0;"/><path d="M3138.4731,277.2931 Q3137.8921,277.5919 3137.2529,277.7413 Q3136.6138,277.8907 3135.9082,277.8907 Q3133.4014,277.8907 3132.0815,276.2389 Q3130.7617,274.587 3130.7617,271.4659 Q3130.7617,268.3365 3132.0815,266.6847 Q3133.4014,265.0328 3135.9082,265.0328 Q3136.6138,265.0328 3137.2612,265.1822 Q3137.9087,265.3316 3138.4731,265.6305 L3138.4731,268.3531 Q3137.8423,267.7721 3137.2488,267.5023 Q3136.6553,267.2325 3136.0244,267.2325 Q3134.6797,267.2325 3133.9949,268.2992 Q3133.3101,269.3658 3133.3101,271.4659 Q3133.3101,273.5577 3133.9949,274.6244 Q3134.6797,275.691 3136.0244,275.691 Q3136.6553,275.691 3137.2488,275.4212 Q3137.8423,275.1515 3138.4731,274.5704 Z " fill="#000000"/><text fill="#000000" font-family="sans-serif" font-size="14" lengthAdjust="spacing" textLength="41" x="3150" y="276.441">List`1</text><rect fill="#FFFFFF" height="16.1328" style="stroke:#181818;stroke-width:1.0;stroke-dasharray:2.0,2.0;" width="10" x="3199" y="252.15"/><text fill="#000000" font-family="sans-serif" font-size="12" font-style="italic" lengthAdjust="spacing" textLength="8" x="3200" y="264.7516">T</text><line style="stroke:#181818;stroke-width:0.5;" x1="3122" x2="3205" y1="287.15" y2="287.15"/><line style="stroke:#181818;stroke-width:0.5;" x1="3122" x2="3205" y1="295.15" y2="295.15"/></g><!--class RoleTypes--><g id="elem_RoleTypes"><rect codeLine="14" fill="#F1F1F1" height="113.9531" id="RoleTypes" rx="2.5" ry="2.5" style="stroke:#181818;stroke-width:0.5;" width="141" x="634" y="437.35"/><ellipse cx="666.55" cy="453.35" fill="#EB937F" rx="11" ry="11" style="stroke:#181818;stroke-width:1.0;"/><path d="M670.1643,459.85 L662.4445,459.85 L662.4445,447.4569 L670.1643,447.4569 L670.1643,449.6151 L664.8933,449.6151 L664.8933,452.288 L669.6662,452.288 L669.6662,454.4462 L664.8933,454.4462 L664.8933,457.6918 L670.1643,457.6918 Z " fill="#000000"/><text fill="#000000" font-family="sans-serif" font-size="14" lengthAdjust="spacing" textLength="70" x="684.45" y="458.641">RoleTypes</text><line style="stroke:#181818;stroke-width:0.5;" x1="635" x2="774" y1="469.35" y2="469.35"/><text fill="#000000" font-family="sans-serif" font-size="14" lengthAdjust="spacing" textLength="59" x="640" y="486.8852">Teacher,</text><text fill="#000000" font-family="sans-serif" font-size="14" lengthAdjust="spacing" textLength="129" x="640" y="503.3734">TeachingAssistant,</text><text fill="#000000" font-family="sans-serif" font-size="14" lengthAdjust="spacing" textLength="81" x="640" y="519.8617">PeerReview,</text><text fill="#000000" font-family="sans-serif" font-size="14" lengthAdjust="spacing" textLength="57" x="640" y="536.35">Student,</text><line style="stroke:#181818;stroke-width:0.5;" x1="635" x2="774" y1="543.3031" y2="543.3031"/></g><!--class Dictionary`2--><g id="elem_Dictionary`2"><rect codeLine="20" fill="#F1F1F1" height="48" id="Dictionary`2" rx="2.5" ry="2.5" style="stroke:#181818;stroke-width:0.5;" width="159" x="1049" y="255.15"/><ellipse cx="1064" cy="271.15" fill="#ADD1B2" rx="11" ry="11" style="stroke:#181818;stroke-width:1.0;"/><path d="M1066.4731,277.2931 Q1065.8921,277.5919 1065.2529,277.7413 Q1064.6138,277.8907 1063.9082,277.8907 Q1061.4014,277.8907 1060.0815,276.2389 Q1058.7617,274.587 1058.7617,271.4659 Q1058.7617,268.3365 1060.0815,266.6847 Q1061.4014,265.0328 1063.9082,265.0328 Q1064.6138,265.0328 1065.2612,265.1822 Q1065.9087,265.3316 1066.4731,265.6305 L1066.4731,268.3531 Q1065.8423,267.7721 1065.2488,267.5023 Q1064.6553,267.2325 1064.0244,267.2325 Q1062.6797,267.2325 1061.9949,268.2992 Q1061.3101,269.3658 1061.3101,271.4659 Q1061.3101,273.5577 1061.9949,274.6244 Q1062.6797,275.691 1064.0244,275.691 Q1064.6553,275.691 1065.2488,275.4212 Q1065.8423,275.1515 1066.4731,274.5704 Z " fill="#000000"/><text fill="#000000" font-family="sans-serif" font-size="14" lengthAdjust="spacing" textLength="87" x="1078" y="276.441">Dictionary`2</text><rect fill="#FFFFFF" height="16.1328" style="stroke:#181818;stroke-width:1.0;stroke-dasharray:2.0,2.0;" width="38" x="1173" y="252.15"/><text fill="#000000" font-family="sans-serif" font-size="12" font-style="italic" lengthAdjust="spacing" textLength="36" x="1174" y="264.7516">T1,T2</text><line style="stroke:#181818;stroke-width:0.5;" x1="1050" x2="1207" y1="287.15" y2="287.15"/><line style="stroke:#181818;stroke-width:0.5;" x1="1050" x2="1207" y1="295.15" y2="295.15"/></g><!--class Coursework--><g id="elem_Coursework"><rect codeLine="1" fill="#F1F1F1" height="130.4414" id="Coursework" rx="2.5" ry="2.5" style="stroke:#181818;stroke-width:0.5;" width="463" x="1632" y="7"/><ellipse cx="1817.75" cy="23" fill="#A9DCDF" rx="11" ry="11" style="stroke:#181818;stroke-width:1.0;"/><path d="M1817.6133,18.3481 L1816.4595,23.4199 L1818.7754,23.4199 Z M1816.1191,16.1069 L1819.1157,16.1069 L1822.4609,28.5 L1820.0122,28.5 L1819.2485,25.437 L1815.9697,25.437 L1815.2227,28.5 L1812.7739,28.5 Z " fill="#000000"/><text fill="#000000" font-family="sans-serif" font-size="14" font-style="italic" lengthAdjust="spacing" textLength="83" x="1838.25" y="28.291">Coursework</text><line style="stroke:#181818;stroke-width:0.5;" x1="1633" x2="2094" y1="39" y2="39"/><ellipse cx="1643" cy="52.7441" fill="none" rx="3" ry="3" style="stroke:#038048;stroke-width:1.0;"/><text fill="#000000" font-family="sans-serif" font-size="14" lengthAdjust="spacing" textLength="169" x="1652" y="56.5352">Name : string &#171;get&#187; &#171;set&#187;</text><ellipse cx="1643" cy="69.2324" fill="none" rx="3" ry="3" style="stroke:#038048;stroke-width:1.0;"/><text fill="#000000" font-family="sans-serif" font-size="14" lengthAdjust="spacing" textLength="168" x="1652" y="73.0234">Weight : float &#171;get&#187; &#171;set&#187;</text><ellipse cx="1643" cy="85.7207" fill="none" rx="3" ry="3" style="stroke:#038048;stroke-width:1.0;"/><text fill="#000000" font-family="sans-serif" font-size="14" lengthAdjust="spacing" textLength="121" x="1652" y="89.5117">&#171;readonly&#187; Id : int</text><ellipse cx="1643" cy="102.209" fill="none" rx="3" ry="3" style="stroke:#038048;stroke-width:1.0;"/><text fill="#000000" font-family="sans-serif" font-size="14" lengthAdjust="spacing" textLength="286" x="1652" y="106">EarnablePoint : float &#171;get&#187; &#171;protected set&#187;</text><line style="stroke:#181818;stroke-width:0.5;" x1="1633" x2="2094" y1="112.9531" y2="112.9531"/><ellipse cx="1643" cy="126.6973" fill="#84BE84" rx="3" ry="3" style="stroke:#038048;stroke-width:1.0;"/><text fill="#000000" font-family="sans-serif" font-size="14" font-style="italic" lengthAdjust="spacing" textLength="437" x="1652" y="130.4883">GetPointEarned(submission:ReadOnlyCollection&lt;string&gt;) : float</text></g><!--class DateTime--><g id="elem_DateTime"><rect fill="#F1F1F1" height="48" id="DateTime" rx="2.5" ry="2.5" style="stroke:#181818;stroke-width:0.5;" width="97" x="1815" y="255.15"/><ellipse cx="1830" cy="271.15" fill="#ADD1B2" rx="11" ry="11" style="stroke:#181818;stroke-width:1.0;"/><path d="M1832.4731,277.2931 Q1831.8921,277.5919 1831.2529,277.7413 Q1830.6138,277.8907 1829.9082,277.8907 Q1827.4014,277.8907 1826.0815,276.2389 Q1824.7617,274.587 1824.7617,271.4659 Q1824.7617,268.3365 1826.0815,266.6847 Q1827.4014,265.0328 1829.9082,265.0328 Q1830.6138,265.0328 1831.2612,265.1822 Q1831.9087,265.3316 1832.4731,265.6305 L1832.4731,268.3531 Q1831.8423,267.7721 1831.2488,267.5023 Q1830.6553,267.2325 1830.0244,267.2325 Q1828.6797,267.2325 1827.9949,268.2992 Q1827.3101,269.3658 1827.3101,271.4659 Q1827.3101,273.5577 1827.9949,274.6244 Q1828.6797,275.691 1830.0244,275.691 Q1830.6553,275.691 1831.2488,275.4212 Q1831.8423,275.1515 1832.4731,274.5704 Z " fill="#000000"/><text fill="#000000" font-family="sans-serif" font-size="14" lengthAdjust="spacing" textLength="65" x="1844" y="276.441">DateTime</text><line style="stroke:#181818;stroke-width:0.5;" x1="1816" x2="1911" y1="287.15" y2="287.15"/><line style="stroke:#181818;stroke-width:0.5;" x1="1816" x2="1911" y1="295.15" y2="295.15"/></g><!--class Question--><g id="elem_Question"><rect codeLine="1" fill="#F1F1F1" height="113.9531" id="Question" rx="2.5" ry="2.5" style="stroke:#181818;stroke-width:0.5;" width="492" x="3278.5" y="15.25"/><ellipse cx="3489.25" cy="31.25" fill="#A9DCDF" rx="11" ry="11" style="stroke:#181818;stroke-width:1.0;"/><path d="M3489.1133,26.5981 L3487.9595,31.6699 L3490.2754,31.6699 Z M3487.6191,24.3569 L3490.6157,24.3569 L3493.9609,36.75 L3491.5122,36.75 L3490.7485,33.687 L3487.4697,33.687 L3486.7227,36.75 L3484.2739,36.75 Z " fill="#000000"/><text fill="#000000" font-family="sans-serif" font-size="14" font-style="italic" lengthAdjust="spacing" textLength="62" x="3509.75" y="36.541">Question</text><line style="stroke:#181818;stroke-width:0.5;" x1="3279.5" x2="3769.5" y1="47.25" y2="47.25"/><ellipse cx="3289.5" cy="60.9941" fill="none" rx="3" ry="3" style="stroke:#038048;stroke-width:1.0;"/><text fill="#000000" font-family="sans-serif" font-size="14" lengthAdjust="spacing" textLength="160" x="3298.5" y="64.7852">&#171;readonly&#187; Title : string</text><ellipse cx="3289.5" cy="77.4824" fill="none" rx="3" ry="3" style="stroke:#038048;stroke-width:1.0;"/><text fill="#000000" font-family="sans-serif" font-size="14" lengthAdjust="spacing" textLength="216" x="3298.5" y="81.2734">&#171;readonly&#187; EarnablePoint : float</text><line style="stroke:#181818;stroke-width:0.5;" x1="3279.5" x2="3769.5" y1="88.2266" y2="88.2266"/><ellipse cx="3289.5" cy="101.9707" fill="#84BE84" rx="3" ry="3" style="stroke:#038048;stroke-width:1.0;"/><text fill="#000000" font-family="sans-serif" font-size="14" font-style="italic" lengthAdjust="spacing" textLength="238" x="3298.5" y="105.7617">GetRandomAnswer() : List&lt;string&gt;</text><ellipse cx="3289.5" cy="118.459" fill="#84BE84" rx="3" ry="3" style="stroke:#038048;stroke-width:1.0;"/><text fill="#000000" font-family="sans-serif" font-size="14" font-style="italic" lengthAdjust="spacing" textLength="466" x="3298.5" y="122.25">GetSubmissionPoint(submissionCopy:List&lt;string&gt;, indent:int) : float</text></g><!--class TrueFalseQuestion--><g id="elem_TrueFalseQuestion"><rect codeLine="1" fill="#F1F1F1" height="80.9766" id="TrueFalseQuestion" rx="2.5" ry="2.5" style="stroke:#181818;stroke-width:0.5;" width="567" x="3241" y="238.66"/><ellipse cx="3455.75" cy="254.66" fill="#ADD1B2" rx="11" ry="11" style="stroke:#181818;stroke-width:1.0;"/><path d="M3458.2231,260.8031 Q3457.6421,261.1019 3457.0029,261.2513 Q3456.3638,261.4007 3455.6582,261.4007 Q3453.1514,261.4007 3451.8315,259.7489 Q3450.5117,258.097 3450.5117,254.9759 Q3450.5117,251.8465 3451.8315,250.1947 Q3453.1514,248.5428 3455.6582,248.5428 Q3456.3638,248.5428 3457.0112,248.6922 Q3457.6587,248.8416 3458.2231,249.1405 L3458.2231,251.8631 Q3457.5923,251.2821 3456.9988,251.0123 Q3456.4053,250.7425 3455.7744,250.7425 Q3454.4297,250.7425 3453.7449,251.8092 Q3453.0601,252.8758 3453.0601,254.9759 Q3453.0601,257.0677 3453.7449,258.1344 Q3454.4297,259.201 3455.7744,259.201 Q3456.4053,259.201 3456.9988,258.9312 Q3457.5923,258.6615 3458.2231,258.0804 Z " fill="#000000"/><text fill="#000000" font-family="sans-serif" font-size="14" lengthAdjust="spacing" textLength="129" x="3476.25" y="259.951">TrueFalseQuestion</text><line style="stroke:#181818;stroke-width:0.5;" x1="3242" x2="3807" y1="270.66" y2="270.66"/><line style="stroke:#181818;stroke-width:0.5;" x1="3242" x2="3807" y1="278.66" y2="278.66"/><ellipse cx="3252" cy="292.4041" fill="#84BE84" rx="3" ry="3" style="stroke:#038048;stroke-width:1.0;"/><text fill="#000000" font-family="sans-serif" font-size="14" lengthAdjust="spacing" textLength="313" x="3261" y="296.1952">&#171;override&#187; GetRandomAnswer() : List&lt;string&gt;</text><ellipse cx="3252" cy="308.8924" fill="#84BE84" rx="3" ry="3" style="stroke:#038048;stroke-width:1.0;"/><text fill="#000000" font-family="sans-serif" font-size="14" lengthAdjust="spacing" textLength="541" x="3261" y="312.6834">&#171;override&#187; GetSubmissionPoint(submissionCopy:List&lt;string&gt;, indent:int) : float</text></g><!--class Quiz--><g id="elem_Quiz"><rect codeLine="1" fill="#F1F1F1" height="64.4883" id="Quiz" rx="2.5" ry="2.5" style="stroke:#181818;stroke-width:0.5;" width="538" x="1242.5" y="246.91"/><ellipse cx="1491.25" cy="262.91" fill="#ADD1B2" rx="11" ry="11" style="stroke:#181818;stroke-width:1.0;"/><path d="M1493.7231,269.0531 Q1493.1421,269.3519 1492.5029,269.5013 Q1491.8638,269.6507 1491.1582,269.6507 Q1488.6514,269.6507 1487.3315,267.9989 Q1486.0117,266.347 1486.0117,263.2259 Q1486.0117,260.0965 1487.3315,258.4447 Q1488.6514,256.7928 1491.1582,256.7928 Q1491.8638,256.7928 1492.5112,256.9422 Q1493.1587,257.0916 1493.7231,257.3905 L1493.7231,260.1131 Q1493.0923,259.5321 1492.4988,259.2623 Q1491.9053,258.9925 1491.2744,258.9925 Q1489.9297,258.9925 1489.2449,260.0592 Q1488.5601,261.1258 1488.5601,263.2259 Q1488.5601,265.3177 1489.2449,266.3844 Q1489.9297,267.451 1491.2744,267.451 Q1491.9053,267.451 1492.4988,267.1812 Q1493.0923,266.9115 1493.7231,266.3304 Z " fill="#000000"/><text fill="#000000" font-family="sans-serif" font-size="14" lengthAdjust="spacing" textLength="32" x="1511.75" y="268.201">Quiz</text><line style="stroke:#181818;stroke-width:0.5;" x1="1243.5" x2="1779.5" y1="278.91" y2="278.91"/><line style="stroke:#181818;stroke-width:0.5;" x1="1243.5" x2="1779.5" y1="286.91" y2="286.91"/><ellipse cx="1253.5" cy="300.6541" fill="#84BE84" rx="3" ry="3" style="stroke:#038048;stroke-width:1.0;"/><text fill="#000000" font-family="sans-serif" font-size="14" lengthAdjust="spacing" textLength="512" x="1262.5" y="304.4452">&#171;override&#187; GetPointEarned(submission:ReadOnlyCollection&lt;string&gt;) : float</text></g><!--class QuestionSet--><g id="elem_QuestionSet"><rect codeLine="1" fill="#F1F1F1" height="80.9766" id="QuestionSet" rx="2.5" ry="2.5" style="stroke:#181818;stroke-width:0.5;" width="567" x="2519" y="238.66"/><ellipse cx="2756.75" cy="254.66" fill="#ADD1B2" rx="11" ry="11" style="stroke:#181818;stroke-width:1.0;"/><path d="M2759.2231,260.8031 Q2758.6421,261.1019 2758.0029,261.2513 Q2757.3638,261.4007 2756.6582,261.4007 Q2754.1514,261.4007 2752.8315,259.7489 Q2751.5117,258.097 2751.5117,254.9759 Q2751.5117,251.8465 2752.8315,250.1947 Q2754.1514,248.5428 2756.6582,248.5428 Q2757.3638,248.5428 2758.0112,248.6922 Q2758.6587,248.8416 2759.2231,249.1405 L2759.2231,251.8631 Q2758.5923,251.2821 2757.9988,251.0123 Q2757.4053,250.7425 2756.7744,250.7425 Q2755.4297,250.7425 2754.7449,251.8092 Q2754.0601,252.8758 2754.0601,254.9759 Q2754.0601,257.0677 2754.7449,258.1344 Q2755.4297,259.201 2756.7744,259.201 Q2757.4053,259.201 2757.9988,258.9312 Q2758.5923,258.6615 2759.2231,258.0804 Z " fill="#000000"/><text fill="#000000" font-family="sans-serif" font-size="14" lengthAdjust="spacing" textLength="83" x="2777.25" y="259.951">QuestionSet</text><line style="stroke:#181818;stroke-width:0.5;" x1="2520" x2="3085" y1="270.66" y2="270.66"/><line style="stroke:#181818;stroke-width:0.5;" x1="2520" x2="3085" y1="278.66" y2="278.66"/><ellipse cx="2530" cy="292.4041" fill="#84BE84" rx="3" ry="3" style="stroke:#038048;stroke-width:1.0;"/><text fill="#000000" font-family="sans-serif" font-size="14" lengthAdjust="spacing" textLength="313" x="2539" y="296.1952">&#171;override&#187; GetRandomAnswer() : List&lt;string&gt;</text><ellipse cx="2530" cy="308.8924" fill="#84BE84" rx="3" ry="3" style="stroke:#038048;stroke-width:1.0;"/><text fill="#000000" font-family="sans-serif" font-size="14" lengthAdjust="spacing" textLength="541" x="2539" y="312.6834">&#171;override&#187; GetSubmissionPoint(submissionCopy:List&lt;string&gt;, indent:int) : float</text></g><!--class ChoiceQuestion--><g id="elem_ChoiceQuestion"><rect codeLine="1" fill="#F1F1F1" height="80.9766" id="ChoiceQuestion" rx="2.5" ry="2.5" style="stroke:#181818;stroke-width:0.5;" width="567" x="3843" y="238.66"/><ellipse cx="4067.75" cy="254.66" fill="#ADD1B2" rx="11" ry="11" style="stroke:#181818;stroke-width:1.0;"/><path d="M4070.2231,260.8031 Q4069.6421,261.1019 4069.0029,261.2513 Q4068.3638,261.4007 4067.6582,261.4007 Q4065.1514,261.4007 4063.8315,259.7489 Q4062.5117,258.097 4062.5117,254.9759 Q4062.5117,251.8465 4063.8315,250.1947 Q4065.1514,248.5428 4067.6582,248.5428 Q4068.3638,248.5428 4069.0112,248.6922 Q4069.6587,248.8416 4070.2231,249.1405 L4070.2231,251.8631 Q4069.5923,251.2821 4068.9988,251.0123 Q4068.4053,250.7425 4067.7744,250.7425 Q4066.4297,250.7425 4065.7449,251.8092 Q4065.0601,252.8758 4065.0601,254.9759 Q4065.0601,257.0677 4065.7449,258.1344 Q4066.4297,259.201 4067.7744,259.201 Q4068.4053,259.201 4068.9988,258.9312 Q4069.5923,258.6615 4070.2231,258.0804 Z " fill="#000000"/><text fill="#000000" font-family="sans-serif" font-size="14" lengthAdjust="spacing" textLength="109" x="4088.25" y="259.951">ChoiceQuestion</text><line style="stroke:#181818;stroke-width:0.5;" x1="3844" x2="4409" y1="270.66" y2="270.66"/><line style="stroke:#181818;stroke-width:0.5;" x1="3844" x2="4409" y1="278.66" y2="278.66"/><ellipse cx="3854" cy="292.4041" fill="#84BE84" rx="3" ry="3" style="stroke:#038048;stroke-width:1.0;"/><text fill="#000000" font-family="sans-serif" font-size="14" lengthAdjust="spacing" textLength="313" x="3863" y="296.1952">&#171;override&#187; GetRandomAnswer() : List&lt;string&gt;</text><ellipse cx="3854" cy="308.8924" fill="#84BE84" rx="3" ry="3" style="stroke:#038048;stroke-width:1.0;"/><text fill="#000000" font-family="sans-serif" font-size="14" lengthAdjust="spacing" textLength="541" x="3863" y="312.6834">&#171;override&#187; GetSubmissionPoint(submissionCopy:List&lt;string&gt;, indent:int) : float</text></g><!--class Assignment--><g id="elem_Assignment"><rect codeLine="1" fill="#F1F1F1" height="64.4883" id="Assignment" rx="2.5" ry="2.5" style="stroke:#181818;stroke-width:0.5;" width="538" x="1946.5" y="246.91"/><ellipse cx="2170.75" cy="262.91" fill="#ADD1B2" rx="11" ry="11" style="stroke:#181818;stroke-width:1.0;"/><path d="M2173.2231,269.0531 Q2172.6421,269.3519 2172.0029,269.5013 Q2171.3638,269.6507 2170.6582,269.6507 Q2168.1514,269.6507 2166.8315,267.9989 Q2165.5117,266.347 2165.5117,263.2259 Q2165.5117,260.0965 2166.8315,258.4447 Q2168.1514,256.7928 2170.6582,256.7928 Q2171.3638,256.7928 2172.0112,256.9422 Q2172.6587,257.0916 2173.2231,257.3905 L2173.2231,260.1131 Q2172.5923,259.5321 2171.9988,259.2623 Q2171.4053,258.9925 2170.7744,258.9925 Q2169.4297,258.9925 2168.7449,260.0592 Q2168.0601,261.1258 2168.0601,263.2259 Q2168.0601,265.3177 2168.7449,266.3844 Q2169.4297,267.451 2170.7744,267.451 Q2171.4053,267.451 2171.9988,267.1812 Q2172.5923,266.9115 2173.2231,266.3304 Z " fill="#000000"/><text fill="#000000" font-family="sans-serif" font-size="14" lengthAdjust="spacing" textLength="81" x="2191.25" y="268.201">Assignment</text><line style="stroke:#181818;stroke-width:0.5;" x1="1947.5" x2="2483.5" y1="278.91" y2="278.91"/><line style="stroke:#181818;stroke-width:0.5;" x1="1947.5" x2="2483.5" y1="286.91" y2="286.91"/><ellipse cx="1957.5" cy="300.6541" fill="#84BE84" rx="3" ry="3" style="stroke:#038048;stroke-width:1.0;"/><text fill="#000000" font-family="sans-serif" font-size="14" lengthAdjust="spacing" textLength="512" x="1966.5" y="304.4452">&#171;override&#187; GetPointEarned(submission:ReadOnlyCollection&lt;string&gt;) : float</text></g><!--reverse link ICourseListener to CanvasUser--><g id="link_ICourseListener_CanvasUser"><path codeLine="11" d="M291.2393,321.354 C292.4193,349.304 293.7,379.6 295.42,420.49 " fill="none" id="ICourseListener-backto-CanvasUser" style="stroke:#181818;stroke-width:1.0;"/><polygon fill="none" points="290.48,303.37,285.2446,321.6071,297.2339,321.1009,290.48,303.37" style="stroke:#181818;stroke-width:1.0;"/></g><!--link CanvasUser to ReadOnlyCollection`1--><g id="link_CanvasUser_ReadOnlyCollection`1"><path codeLine="12" d="M298.5,568.05 C298.5,589.55 298.5,605.55 298.5,621.46 " fill="none" id="CanvasUser-to-ReadOnlyCollection`1" style="stroke:#181818;stroke-width:1.0;"/><polygon fill="#181818" points="298.5,627.46,302.5,618.46,298.5,622.46,294.5,618.46,298.5,627.46" style="stroke:#181818;stroke-width:1.0;"/><text fill="#000000" font-family="sans-serif" font-size="13" lengthAdjust="spacing" textLength="72" x="217.275" y="616.9117">Links&lt;Uri&gt;</text></g><!--link AcademicCourse to List`1--><g id="link_AcademicCourse_List`1"><path codeLine="22" d="M958.8537,194.1079 C990.8037,186.0279 1011.73,182.06 1043.17,177.44 C1099.47,169.17 3041.32,151.24 3091.83,177.44 C3123.09,193.65 3141.1929,224.964 3151.9629,249.554 " fill="none" id="AcademicCourse-List`1" style="stroke:#181818;stroke-width:1.0;"/><polygon fill="none" points="947.22,197.05,954.0176,199.4569,958.8537,194.1079,952.0562,191.701,947.22,197.05" style="stroke:#181818;stroke-width:1.0;"/><polygon fill="#181818" points="3154.37,255.05,3154.4233,245.2013,3152.364,250.47,3147.0953,248.4108,3154.37,255.05" style="stroke:#181818;stroke-width:1.0;"/><text fill="#000000" font-family="sans-serif" font-size="13" lengthAdjust="spacing" textLength="128" x="3104.5402" y="235.9199">Users&lt;CanvasUser&gt;</text></g><!--link AcademicCourse to List`1--><g id="link_AcademicCourse_List`1"><path codeLine="25" d="M915.2396,193.2018 C963.8196,176.8018 1004.84,165.88 1054.83,157.44 C1110.31,148.08 3030.4,131.2 3080.17,157.44 C3119.02,177.93 3140.9738,220.0223 3152.7138,249.2523 " fill="none" id="AcademicCourse-List`1-1" style="stroke:#181818;stroke-width:1.0;"/><polygon fill="none" points="903.87,197.04,910.8342,198.9108,915.2396,193.2018,908.2754,191.331,903.87,197.04" style="stroke:#181818;stroke-width:1.0;"/><polygon fill="#181818" points="3154.95,254.82,3155.3075,244.9776,3153.0865,250.1802,3147.8839,247.9593,3154.95,254.82" style="stroke:#181818;stroke-width:1.0;"/><text fill="#000000" font-family="sans-serif" font-size="13" lengthAdjust="spacing" textLength="177" x="3051.7018" y="227.8585">Courseworks&lt;Coursework&gt;</text></g><!--link AcademicCourse to Dictionary`2--><g id="link_AcademicCourse_Dictionary`2"><path codeLine="23" d="M1026.2223,324.1986 C1048.3123,318.2886 1053.3447,315.9338 1075.4347,306.0338 " fill="none" id="AcademicCourse-Dictionary`2" style="stroke:#181818;stroke-width:1.0;"/><polygon fill="none" points="1014.63,327.3,1021.46,329.6134,1026.2223,324.1986,1019.3923,321.8852,1014.63,327.3" style="stroke:#181818;stroke-width:1.0;"/><polygon fill="#181818" points="1080.91,303.58,1071.0612,303.6106,1076.3473,305.6249,1074.333,310.9109,1080.91,303.58" style="stroke:#181818;stroke-width:1.0;"/><text fill="#000000" font-family="sans-serif" font-size="13" lengthAdjust="spacing" textLength="139" x="1085.9767" y="323.5681">Roles&lt;int,RoleTypes&gt;</text></g><!--link AcademicCourse to Dictionary`2--><g id="link_AcademicCourse_Dictionary`2"><path codeLine="26" d="M1026.2223,234.1014 C1048.3123,240.0114 1053.3447,242.3662 1075.4347,252.2662 " fill="none" id="AcademicCourse-Dictionary`2-1" style="stroke:#181818;stroke-width:1.0;"/><polygon fill="none" points="1014.63,231,1019.3923,236.4148,1026.2223,234.1014,1021.46,228.6866,1014.63,231" style="stroke:#181818;stroke-width:1.0;"/><polygon fill="#181818" points="1080.91,254.72,1074.333,247.3891,1076.3473,252.6751,1071.0612,254.6894,1080.91,254.72" style="stroke:#181818;stroke-width:1.0;"/><text fill="#000000" font-family="sans-serif" font-size="13" lengthAdjust="spacing" textLength="311" x="1055.9008" y="236.3915">Submissions&lt;int,Dictionary&lt;int, List&lt;string&gt;&gt;&gt;</text></g><!--link AcademicCourse to CanvasUser--><g id="link_AcademicCourse_CanvasUser"><path codeLine="24" d="M549.85,361.35 C512.88,380.77 478.9421,398.5805 442.7221,417.6005 " fill="none" id="AcademicCourse-to-CanvasUser" style="stroke:#181818;stroke-width:1.0;"/><polygon fill="#181818" points="437.41,420.39,447.2379,419.7471,441.8368,418.0654,443.5185,412.6643,437.41,420.39" style="stroke:#181818;stroke-width:1.0;"/><text fill="#000000" font-family="sans-serif" font-size="13" lengthAdjust="spacing" textLength="49" x="399.3147" y="410.2114">Teacher</text></g><!--reverse link AcademicCourse to RoleTypes--><g id="link_AcademicCourse_RoleTypes"><path codeLine="27" d="M704.5,377.35 C704.5,402.65 704.5,413.97 704.5,437.16 " fill="none" id="AcademicCourse-backto-RoleTypes" style="stroke:#181818;stroke-width:1.0;"/><ellipse cx="704.5" cy="369.35" fill="#FFFFFF" rx="8" ry="8" style="stroke:#181818;stroke-width:1.0;"/><line style="stroke:#181818;stroke-width:1.0;" x1="704.5" x2="704.5" y1="377.35" y2="361.35"/><line style="stroke:#181818;stroke-width:1.0;" x1="696.5" x2="712.5" y1="369.35" y2="369.35"/></g><!--link Coursework to DateTime--><g id="link_Coursework_DateTime"><path codeLine="8" d="M1838.92,137.78 C1835.25,177.67 1835.9171,220.7297 1844.3471,249.0297 " fill="none" id="Coursework-to-DateTime" style="stroke:#181818;stroke-width:1.0;"/><polygon fill="#181818" points="1846.06,254.78,1847.3242,245.0126,1844.6326,249.9881,1839.6571,247.2965,1846.06,254.78" style="stroke:#181818;stroke-width:1.0;"/><text fill="#000000" font-family="sans-serif" font-size="13" lengthAdjust="spacing" textLength="39" x="1797.5941" y="244.2215">DueAt</text></g><!--link Coursework to DateTime--><g id="link_Coursework_DateTime"><path codeLine="9" d="M1863.5,137.78 C1863.5,177.67 1863.5,220.48 1863.5,248.78 " fill="none" id="Coursework-to-DateTime-1" style="stroke:#181818;stroke-width:1.0;"/><polygon fill="#181818" points="1863.5,254.78,1867.5,245.78,1863.5,249.78,1859.5,245.78,1863.5,254.78" style="stroke:#181818;stroke-width:1.0;"/><text fill="#000000" font-family="sans-serif" font-size="13" lengthAdjust="spacing" textLength="58" x="1870.9313" y="244.2215">UnlockAt</text></g><!--link Coursework to DateTime--><g id="link_Coursework_DateTime"><path codeLine="10" d="M1888.08,137.78 C1891.75,177.67 1891.0829,220.7297 1882.6529,249.0297 " fill="none" id="Coursework-to-DateTime-2" style="stroke:#181818;stroke-width:1.0;"/><polygon fill="#181818" points="1880.94,254.78,1887.3429,247.2965,1882.3674,249.9881,1879.6758,245.0126,1880.94,254.78" style="stroke:#181818;stroke-width:1.0;"/><text fill="#000000" font-family="sans-serif" font-size="13" lengthAdjust="spacing" textLength="44" x="1894.1249" y="248.0079">LockAt</text></g><!--reverse link Question to TrueFalseQuestion--><g id="link_Question_TrueFalseQuestion"><path codeLine="5" d="M3524.5,147.49 C3524.5,181.97 3524.5,207.28 3524.5,238.24 " fill="none" id="Question-backto-TrueFalseQuestion" style="stroke:#181818;stroke-width:1.0;"/><polygon fill="none" points="3524.5,129.49,3518.5,147.49,3530.5,147.49,3524.5,129.49" style="stroke:#181818;stroke-width:1.0;"/></g><!--reverse link Coursework to Quiz--><g id="link_Coursework_Quiz"><path codeLine="6" d="M1737.0539,146.8359 C1674.7839,183.0859 1615.41,217.66 1565.78,246.55 " fill="none" id="Coursework-backto-Quiz" style="stroke:#181818;stroke-width:1.0;"/><polygon fill="none" points="1752.61,137.78,1734.0353,141.6505,1740.0725,152.0212,1752.61,137.78" style="stroke:#181818;stroke-width:1.0;"/></g><!--link Quiz to List`1--><g id="link_Quiz_List`1"><path codeLine="7" d="M1589.8126,241.5526 C1650.0726,214.2826 1730.7,182.46 1815,167.44 C1884.52,155.06 3023.44,134.7 3086,167.44 C3120.93,185.72 3140.9379,222.1576 3152.2579,249.1276 " fill="none" id="Quiz-List`1" style="stroke:#181818;stroke-width:1.0;"/><polygon fill="none" points="1578.88,246.5,1585.9955,247.6705,1589.8126,241.5526,1582.6972,240.3821,1578.88,246.5" style="stroke:#181818;stroke-width:1.0;"/><polygon fill="#181818" points="3154.58,254.66,3154.7851,244.8133,3152.6449,250.0496,3147.4086,247.9094,3154.58,254.66" style="stroke:#181818;stroke-width:1.0;"/><text fill="#000000" font-family="sans-serif" font-size="13" lengthAdjust="spacing" textLength="141" x="3093.6257" y="233.5398">Questions&lt;Question&gt;</text></g><!--reverse link Question to QuestionSet--><g id="link_Question_QuestionSet"><path codeLine="7" d="M3308.4637,134.5437 C3187.0937,168.9837 3052.14,207.29 2943.2,238.22 " fill="none" id="Question-backto-QuestionSet" style="stroke:#181818;stroke-width:1.0;"/><polygon fill="none" points="3325.78,129.63,3306.8258,128.7716,3310.1016,140.3158,3325.78,129.63" style="stroke:#181818;stroke-width:1.0;"/></g><!--link QuestionSet to List`1--><g id="link_QuestionSet_List`1"><path codeLine="8" d="M3098.29,279.15 C3109.75,279.15 3103.21,279.15 3114.67,279.15 " fill="none" id="QuestionSet-List`1" style="stroke:#181818;stroke-width:1.0;"/><polygon fill="none" points="3086.29,279.15,3092.29,283.15,3098.29,279.15,3092.29,275.15,3086.29,279.15" style="stroke:#181818;stroke-width:1.0;"/><polygon fill="#181818" points="3120.67,279.15,3111.67,275.15,3115.67,279.15,3111.67,283.15,3120.67,279.15" style="stroke:#181818;stroke-width:1.0;"/><text fill="#000000" font-family="sans-serif" font-size="13" lengthAdjust="spacing" textLength="141" x="3095.0842" y="272.2087">Questions&lt;Question&gt;</text></g><!--reverse link Question to ChoiceQuestion--><g id="link_Question_ChoiceQuestion"><path codeLine="5" d="M3707.2303,135.429 C3808.5203,169.899 3918.57,207.37 4009.42,238.29 " fill="none" id="Question-backto-ChoiceQuestion" style="stroke:#181818;stroke-width:1.0;"/><polygon fill="none" points="3690.19,129.63,3705.2973,141.1091,3709.1633,129.7489,3690.19,129.63" style="stroke:#181818;stroke-width:1.0;"/></g><!--reverse link Coursework to Assignment--><g id="link_Coursework_Assignment"><path codeLine="4" d="M1989.9461,146.8359 C2052.2161,183.0859 2111.59,217.66 2161.22,246.55 " fill="none" id="Coursework-backto-Assignment" style="stroke:#181818;stroke-width:1.0;"/><polygon fill="none" points="1974.39,137.78,1986.9275,152.0212,1992.9647,141.6505,1974.39,137.78" style="stroke:#181818;stroke-width:1.0;"/></g><!--SRC=[dL8zJmCn3Dtv5NH72I0XiJ2SGa4TGA2sx4bgqd19VBAJLlJNawCI53fKTulp8lizFNzCVBAXhE1So2K3iToj8Raj-EJaFN2RiPEg447AKitLxEhcUYgVqBPAfurc-KBeI4VHbHZE9d_5vBwcXqVvnkeLH6yL5cBuzprLlN-sIEq1F2AX-QWjcE9aWdmhBWziYuOPeWcVi_IEfudYURfGID1qtSLR7PB7TBUfYH-P9cVofcJWGIuU0neTbbo7pS8DwFgr-5qDmBbQ6SfRK8477HZ62lHXhDavvA5KjKPlnvYjs_4knVvqV-4t_mi0]--></g></svg>